<svg width="56" height="60" viewBox="0 0 56 60" fill="none" xmlns="http://www.w3.org/2000/svg">
<path d="M27.1621 0C27.8422 0.000279469 33.6139 1.35824 40.0156 3.05566C50.0071 5.6748 51.6562 6.25711 51.6562 7.0332C51.6538 8.24695 29.5885 20.8067 27.4531 20.8076C26.6771 20.8076 21.7292 19.6921 16.4424 18.334C8.92477 16.394 6.64528 16.0065 5.86914 16.3945C4.55954 17.122 4.12299 18.7223 4.99609 19.9834C5.38449 20.5656 9.7984 23.3305 14.7939 26.1436C19.7893 28.9565 24.2023 31.6726 24.5908 32.2549C25.1244 33.0794 25.222 35.9412 25.125 46.5635C24.9795 58.4951 24.8818 59.8535 24.1543 59.999C23.2743 60.1403 1.5523 47.8237 0.630859 46.6113C0.145928 46.0289 0 42.2942 0 31.7695C4.14437e-07 18.6743 0.0488854 17.5585 0.921875 16.1035C2.18296 14.0664 2.95873 13.5326 15.2783 6.30566C21.1472 2.86196 26.4831 0.0485 27.1621 0ZM47.9697 13.5322C48.8428 13.5322 53.9352 16.3937 54.7119 17.3154C55.1484 17.8975 55.2939 21.5842 55.2939 31.9639C55.2939 42.342 55.1483 46.0284 54.7119 46.6113C53.742 47.8237 32.0188 60.1408 31.1396 59.999C30.4121 59.8535 30.3145 58.4946 30.1689 46.4658C30.072 35.6984 30.1689 32.982 30.751 32.2061C31.0905 31.7209 35.6498 28.8593 40.791 25.9492C46.3204 22.7965 50.2012 20.2744 50.2012 19.8379C50.2012 19.4499 48.8431 18.3343 47.1455 17.3643L44.0898 15.5693L45.6904 14.5508C46.5633 14.0175 47.5815 13.5325 47.9697 13.5322Z" fill="#673AB7"/>
</svg>
