<svg width="1683" height="360" viewBox="0 0 1683 360" fill="none" xmlns="http://www.w3.org/2000/svg">
<g clip-path="url(#clip0_1_2)">
<path d="M91.671 37.833C17.752 81.195 13.096 84.396 5.52901 96.619C0.291007 105.349 0 112.043 0 190.618C0 253.77 0.873005 276.178 3.783 279.671C9.313 286.946 139.69 360.865 144.928 359.992C149.293 359.119 149.876 350.971 150.749 279.38C151.331 215.646 150.749 198.476 147.547 193.529C145.219 190.036 118.736 173.739 88.761 156.86C58.786 139.981 32.303 123.393 29.975 119.9C24.737 112.334 27.356 102.73 35.213 98.365C39.87 96.037 53.548 98.365 98.656 110.006C130.377 118.154 160.061 124.848 164.718 124.848C177.522 124.848 309.937 49.473 309.937 42.198C309.937 37.542 300.042 34.049 240.092 18.334C201.677 8.149 167.046 0 162.971 0C158.897 0.291 126.885 17.17 91.671 37.833Z" fill="#673AB7"/>
<path d="M274.142 87.306L264.538 93.418L282.873 104.185C293.058 110.006 301.207 116.699 301.207 119.027C301.207 121.647 277.925 136.78 244.749 155.696C213.901 173.157 186.545 190.327 184.508 193.238C181.015 197.894 180.433 214.191 181.015 278.798C181.888 350.971 182.47 359.119 186.836 359.992C192.074 360.865 322.451 286.946 328.272 279.671C330.891 276.178 331.764 254.061 331.764 191.782C331.764 129.504 330.891 107.387 328.272 103.894C323.615 98.365 293.058 81.195 287.82 81.195C285.492 81.195 279.38 84.105 274.142 87.306Z" fill="#673AB7"/>
<path d="M480.528 311V49.182H573.852C594.136 49.182 610.968 52.676 624.349 59.665C637.815 66.653 647.872 76.327 654.52 88.685C661.167 100.957 664.491 115.148 664.491 131.256C664.491 147.278 661.125 161.384 654.392 173.571C647.744 185.673 637.687 195.091 624.221 201.824C610.841 208.557 594.008 211.923 573.724 211.923H503.028V177.918H570.145C582.929 177.918 593.326 176.085 601.338 172.42C609.434 168.756 615.358 163.429 619.108 156.44C622.858 149.452 624.733 141.057 624.733 131.256C624.733 121.369 622.815 112.804 618.98 105.56C615.23 98.315 609.306 92.776 601.21 88.94C593.199 85.02 582.673 83.06 569.633 83.06H520.031V311H480.528ZM609.775 192.875L674.463 311H629.463L566.054 192.875H609.775ZM819.48 229.565V114.636H857.83V311H820.25V276.994H818.202C813.685 287.477 806.441 296.213 796.469 303.202C786.583 310.105 774.267 313.557 759.523 313.557C746.909 313.557 735.745 310.787 726.029 305.247C716.398 299.622 708.813 291.312 703.273 280.318C697.818 269.324 695.091 255.73 695.091 239.537V114.636H733.316V234.935C733.316 248.315 737.023 258.969 744.438 266.895C751.852 274.821 761.483 278.784 773.33 278.784C780.489 278.784 787.605 276.994 794.679 273.415C801.838 269.835 807.762 264.423 812.449 257.179C817.222 249.935 819.566 240.73 819.48 229.565ZM933.02 194.409V311H894.79V114.636H931.48V146.597H933.91C938.43 136.199 945.5 127.847 955.13 121.54C964.85 115.233 977.08 112.08 991.82 112.08C1005.2 112.08 1016.92 114.892 1026.98 120.517C1037.04 126.057 1044.84 134.324 1050.38 145.318C1055.91 156.312 1058.68 169.906 1058.68 186.099V311H1020.46V190.702C1020.46 176.469 1016.75 165.347 1009.34 157.335C1001.92 149.239 991.74 145.19 978.78 145.19C969.92 145.19 962.04 147.108 955.13 150.943C948.32 154.778 942.9 160.403 938.9 167.818C934.98 175.148 933.02 184.011 933.02 194.409ZM1098.62 311V49.182H1191.94C1212.31 49.182 1229.19 52.889 1242.57 60.304C1255.95 67.719 1265.96 77.861 1272.61 90.73C1279.26 103.514 1282.58 117.918 1282.58 133.94C1282.58 150.048 1279.21 164.537 1272.48 177.406C1265.83 190.19 1255.78 200.332 1242.31 207.832C1228.93 215.247 1212.1 218.955 1191.81 218.955H1127.64V185.46H1188.23C1201.1 185.46 1211.54 183.244 1219.55 178.812C1227.57 174.295 1233.45 168.159 1237.2 160.403C1240.95 152.648 1242.82 143.827 1242.82 133.94C1242.82 124.054 1240.95 115.276 1237.2 107.605C1233.45 99.935 1227.52 93.926 1219.43 89.58C1211.42 85.233 1200.85 83.06 1187.72 83.06H1138.12V311H1098.62ZM1391.67 314.963C1373.27 314.963 1357.2 310.744 1343.48 302.307C1329.76 293.869 1319.1 282.065 1311.52 266.895C1303.93 251.724 1300.14 233.997 1300.14 213.713C1300.14 193.344 1303.93 175.531 1311.52 160.276C1319.1 145.02 1329.76 133.173 1343.48 124.736C1357.2 116.298 1373.27 112.08 1391.67 112.08C1410.08 112.08 1426.15 116.298 1439.87 124.736C1453.59 133.173 1464.25 145.02 1471.83 160.276C1479.42 175.531 1483.21 193.344 1483.21 213.713C1483.21 233.997 1479.42 251.724 1471.83 266.895C1464.25 282.065 1453.59 293.869 1439.87 302.307C1426.15 310.744 1410.08 314.963 1391.67 314.963ZM1391.8 282.875C1403.73 282.875 1413.62 279.722 1421.46 273.415C1429.3 267.108 1435.1 258.713 1438.85 248.23C1442.68 237.747 1444.6 226.199 1444.6 213.585C1444.6 201.057 1442.68 189.551 1438.85 179.068C1435.1 168.5 1429.3 160.02 1421.46 153.628C1413.62 147.236 1403.73 144.04 1391.8 144.04C1379.79 144.04 1369.81 147.236 1361.89 153.628C1354.05 160.02 1348.21 168.5 1344.37 179.068C1340.62 189.551 1338.75 201.057 1338.75 213.585C1338.75 226.199 1340.62 237.747 1344.37 248.23C1348.21 258.713 1354.05 267.108 1361.89 273.415C1369.81 279.722 1379.79 282.875 1391.8 282.875ZM1584.98 314.835C1569.13 314.835 1554.98 310.787 1542.54 302.69C1530.18 294.509 1520.47 282.875 1513.39 267.79C1506.4 252.619 1502.91 234.423 1502.91 213.202C1502.91 191.98 1506.45 173.827 1513.52 158.741C1520.68 143.656 1530.48 132.108 1542.92 124.097C1555.37 116.085 1569.47 112.08 1585.24 112.08C1597.43 112.08 1607.23 114.125 1614.64 118.216C1622.14 122.222 1627.94 126.909 1632.03 132.278C1636.21 137.648 1639.44 142.378 1641.75 146.469H1644.05V49.182H1682.27V311H1644.94V280.446H1641.75C1639.44 284.622 1636.12 289.395 1631.77 294.764C1627.51 300.134 1621.63 304.821 1614.13 308.827C1606.63 312.832 1596.92 314.835 1584.98 314.835ZM1593.42 282.236C1604.42 282.236 1613.71 279.338 1621.29 273.543C1628.96 267.662 1634.76 259.523 1638.68 249.125C1642.68 238.727 1644.69 226.625 1644.69 212.818C1644.69 199.182 1642.73 187.25 1638.81 177.023C1634.88 166.795 1629.13 158.827 1621.55 153.116C1613.96 147.406 1604.59 144.551 1593.42 144.551C1581.92 144.551 1572.33 147.534 1564.66 153.5C1556.99 159.466 1551.19 167.605 1547.27 177.918C1543.44 188.23 1541.52 199.864 1541.52 212.818C1541.52 225.943 1543.48 237.747 1547.4 248.23C1551.32 258.713 1557.11 267.023 1564.79 273.159C1572.54 279.21 1582.09 282.236 1593.42 282.236Z" fill="#223354"/>
</g>
<defs>
<clipPath id="clip0_1_2">
<rect width="1683" height="360" fill="white"/>
</clipPath>
</defs>
</svg>
