<svg width="173" height="169" viewBox="0 0 173 169" fill="none" xmlns="http://www.w3.org/2000/svg">
<path d="M67.9179 48.9582C49.4381 59.7987 48.274 60.599 46.3823 63.6547C45.0728 65.8374 45 67.5107 45 87.1546C45 102.942 45.2183 108.545 45.9458 109.418C47.3282 111.237 79.9225 129.716 81.232 129.498C82.3234 129.28 82.4689 127.243 82.6871 109.345C82.8327 93.4115 82.6871 89.119 81.8868 87.8822C81.3048 87.0091 74.6841 82.9348 67.1903 78.715C59.6965 74.4952 53.0758 70.3482 52.4938 69.4751C51.1842 67.5835 51.839 65.1826 53.8034 64.0912C54.9675 63.5092 58.3869 64.0912 69.664 67.0014C77.5943 69.0386 85.0153 70.7119 86.1794 70.7119C89.3806 70.7119 122.484 51.8684 122.484 50.0495C122.484 48.8854 120.011 48.0123 105.023 44.0836C95.4193 41.5371 86.7614 39.5 85.7429 39.5C84.7243 39.5728 76.7212 43.7925 67.9179 48.9582Z" fill="#673AB7"/>
<path d="M113.536 61.3265L111.135 62.8544L115.718 65.5463C118.265 67.0014 120.302 68.6748 120.302 69.2568C120.302 69.9116 114.481 73.6949 106.187 78.424C98.4752 82.7893 91.6362 87.0818 91.1269 87.8094C90.2539 88.9735 90.1084 93.0478 90.2539 109.199C90.4721 127.243 90.6176 129.28 91.709 129.498C93.0186 129.716 125.613 111.237 127.068 109.418C127.723 108.545 127.941 103.015 127.941 87.4456C127.941 71.876 127.723 66.3466 127.068 65.4736C125.904 64.0912 118.265 59.7987 116.955 59.7987C116.373 59.7987 114.845 60.5262 113.536 61.3265Z" fill="#673AB7"/>
</svg>
