<svg width="518" height="169" viewBox="0 0 518 169" fill="none" xmlns="http://www.w3.org/2000/svg">
<path d="M67.9179 48.9582C49.4381 59.7987 48.274 60.599 46.3823 63.6547C45.0728 65.8374 45 67.5107 45 87.1546C45 102.942 45.2183 108.545 45.9458 109.418C47.3282 111.237 79.9225 129.716 81.232 129.498C82.3234 129.28 82.4689 127.243 82.6871 109.345C82.8327 93.4115 82.6871 89.119 81.8868 87.8822C81.3048 87.0091 74.6841 82.9348 67.1903 78.715C59.6965 74.4952 53.0758 70.3482 52.4938 69.4751C51.1842 67.5835 51.839 65.1826 53.8034 64.0912C54.9675 63.5092 58.3869 64.0912 69.664 67.0014C77.5943 69.0386 85.0153 70.7119 86.1794 70.7119C89.3806 70.7119 122.484 51.8684 122.484 50.0495C122.484 48.8854 120.011 48.0123 105.023 44.0836C95.4193 41.5371 86.7614 39.5 85.7429 39.5C84.7243 39.5728 76.7212 43.7925 67.9179 48.9582Z" fill="#673AB7"/>
<path d="M113.536 61.3265L111.135 62.8544L115.718 65.5463C118.265 67.0014 120.302 68.6748 120.302 69.2568C120.302 69.9116 114.481 73.6949 106.187 78.424C98.4752 82.7893 91.6362 87.0818 91.1269 87.8094C90.2539 88.9735 90.1084 93.0478 90.2539 109.199C90.4721 127.243 90.6176 129.28 91.709 129.498C93.0186 129.716 125.613 111.237 127.068 109.418C127.723 108.545 127.941 103.015 127.941 87.4456C127.941 71.876 127.723 66.3466 127.068 65.4736C125.904 64.0912 118.265 59.7987 116.955 59.7987C116.373 59.7987 114.845 60.5262 113.536 61.3265Z" fill="#673AB7"/>
<path d="M165.132 117V51.5455H188.463C193.534 51.5455 197.742 52.419 201.087 54.1662C204.454 55.9133 206.968 58.3317 208.63 61.4212C210.292 64.4893 211.123 68.0369 211.123 72.0639C211.123 76.0696 210.281 79.5959 208.598 82.6428C206.936 85.6683 204.422 88.0227 201.055 89.706C197.71 91.3892 193.502 92.2308 188.431 92.2308H170.757V83.7294H187.536C190.732 83.7294 193.332 83.2713 195.334 82.3551C197.359 81.4389 198.839 80.1072 199.777 78.3601C200.714 76.6129 201.183 74.5142 201.183 72.0639C201.183 69.5923 200.704 67.451 199.745 65.6399C198.807 63.8288 197.327 62.4439 195.302 61.4851C193.3 60.505 190.668 60.0149 187.408 60.0149H175.008V117H165.132ZM197.444 87.4688L213.616 117H202.366L186.513 87.4688H197.444ZM249.87 96.6413V67.9091H259.458V117H250.062V108.499H249.55C248.421 111.119 246.61 113.303 244.117 115.05C241.646 116.776 238.567 117.639 234.881 117.639C231.727 117.639 228.936 116.947 226.507 115.562C224.099 114.156 222.203 112.078 220.818 109.33C219.455 106.581 218.773 103.183 218.773 99.1342V67.9091H228.329V97.9837C228.329 101.329 229.256 103.992 231.109 105.974C232.963 107.955 235.371 108.946 238.332 108.946C240.122 108.946 241.901 108.499 243.67 107.604C245.46 106.709 246.94 105.356 248.112 103.545C249.305 101.734 249.891 99.4325 249.87 96.6413ZM278.254 87.8523V117H268.698V67.9091H277.871V75.8991H278.478C279.607 73.2997 281.376 71.2116 283.783 69.6349C286.212 68.0582 289.27 67.2699 292.956 67.2699C296.301 67.2699 299.231 67.973 301.745 69.3793C304.259 70.7642 306.209 72.831 307.594 75.5795C308.979 78.3281 309.671 81.7266 309.671 85.7749V117H300.115V86.9254C300.115 83.3672 299.188 80.5866 297.334 78.5838C295.481 76.5597 292.935 75.5476 289.696 75.5476C287.48 75.5476 285.509 76.027 283.783 76.9858C282.079 77.9446 280.726 79.3509 279.724 81.2045C278.744 83.0369 278.254 85.2528 278.254 87.8523ZM319.654 117V51.5455H342.985C348.078 51.5455 352.296 52.4723 355.641 54.326C358.987 56.1797 361.49 58.7152 363.152 61.9325C364.814 65.1286 365.645 68.7294 365.645 72.7351C365.645 76.7621 364.803 80.3842 363.12 83.6016C361.458 86.7976 358.944 89.3331 355.578 91.2081C352.232 93.0618 348.024 93.9886 342.953 93.9886H326.909V85.6151H342.058C345.276 85.6151 347.886 85.0611 349.889 83.9531C351.891 82.8239 353.362 81.2898 354.299 79.3509C355.237 77.4119 355.705 75.2067 355.705 72.7351C355.705 70.2635 355.237 68.0689 354.299 66.1513C353.362 64.2337 351.881 62.7315 349.857 61.6449C347.854 60.5582 345.212 60.0149 341.931 60.0149H329.53V117H319.654ZM392.919 117.991C388.316 117.991 384.3 116.936 380.87 114.827C377.439 112.717 374.776 109.766 372.88 105.974C370.983 102.181 370.035 97.7493 370.035 92.6783C370.035 87.5859 370.983 83.1328 372.88 79.3189C374.776 75.505 377.439 72.5433 380.87 70.4339C384.3 68.3246 388.316 67.2699 392.919 67.2699C397.521 67.2699 401.537 68.3246 404.968 70.4339C408.398 72.5433 411.061 75.505 412.958 79.3189C414.854 83.1328 415.802 87.5859 415.802 92.6783C415.802 97.7493 414.854 102.181 412.958 105.974C411.061 109.766 408.398 112.717 404.968 114.827C401.537 116.936 397.521 117.991 392.919 117.991ZM392.951 109.969C395.934 109.969 398.405 109.18 400.365 107.604C402.326 106.027 403.774 103.928 404.712 101.308C405.671 98.6868 406.15 95.7997 406.15 92.6463C406.15 89.5142 405.671 86.6378 404.712 84.017C403.774 81.375 402.326 79.255 400.365 77.657C398.405 76.0589 395.934 75.2599 392.951 75.2599C389.946 75.2599 387.453 76.0589 385.472 77.657C383.512 79.255 382.052 81.375 381.093 84.017C380.156 86.6378 379.687 89.5142 379.687 92.6463C379.687 95.7997 380.156 98.6868 381.093 101.308C382.052 103.928 383.512 106.027 385.472 107.604C387.453 109.18 389.946 109.969 392.951 109.969ZM441.246 117.959C437.283 117.959 433.746 116.947 430.635 114.923C427.546 112.877 425.117 109.969 423.348 106.197C421.601 102.405 420.727 97.8558 420.727 92.5504C420.727 87.245 421.612 82.7067 423.38 78.9354C425.17 75.1641 427.62 72.277 430.731 70.2741C433.842 68.2713 437.368 67.2699 441.31 67.2699C444.357 67.2699 446.807 67.7812 448.661 68.804C450.536 69.8054 451.985 70.9773 453.007 72.3196C454.051 73.6619 454.861 74.8445 455.436 75.8672H456.012V51.5455H465.568V117H456.235V109.362H455.436C454.861 110.406 454.03 111.599 452.943 112.941C451.878 114.283 450.408 115.455 448.533 116.457C446.658 117.458 444.229 117.959 441.246 117.959ZM443.355 109.809C446.104 109.809 448.426 109.085 450.323 107.636C452.24 106.165 453.689 104.131 454.669 101.531C455.671 98.9318 456.171 95.9062 456.171 92.4545C456.171 89.0455 455.681 86.0625 454.701 83.5057C453.721 80.9489 452.283 78.9567 450.387 77.5291C448.49 76.1016 446.147 75.3878 443.355 75.3878C440.479 75.3878 438.082 76.1335 436.164 77.625C434.247 79.1165 432.798 81.1513 431.818 83.7294C430.859 86.3075 430.379 89.2159 430.379 92.4545C430.379 95.7358 430.87 98.6868 431.85 101.308C432.83 103.928 434.279 106.006 436.196 107.54C438.135 109.053 440.522 109.809 443.355 109.809Z" fill="#223354"/>
</svg>
