<svg width="2072" height="676" viewBox="0 0 2072 676" fill="none" xmlns="http://www.w3.org/2000/svg">
<path d="M271.671 195.833C197.752 239.195 193.096 242.396 185.529 254.619C180.291 263.349 180 270.043 180 348.618C180 411.77 180.873 434.178 183.783 437.671C189.313 444.946 319.69 518.865 324.928 517.992C329.293 517.119 329.876 508.971 330.749 437.38C331.331 373.646 330.749 356.476 327.547 351.529C325.219 348.036 298.736 331.739 268.761 314.86C238.786 297.981 212.303 281.393 209.975 277.9C204.737 270.334 207.356 260.73 215.213 256.365C219.87 254.037 233.548 256.365 278.656 268.006C310.377 276.154 340.061 282.848 344.718 282.848C357.522 282.848 489.937 207.473 489.937 200.198C489.937 195.542 480.042 192.049 420.092 176.334C381.677 166.149 347.046 158 342.971 158C338.897 158.291 306.885 175.17 271.671 195.833Z" fill="#673AB7"/>
<path d="M454.142 245.306L444.538 251.418L462.873 262.185C473.058 268.006 481.207 274.699 481.207 277.027C481.207 279.647 457.925 294.78 424.749 313.696C393.901 331.157 366.545 348.327 364.508 351.238C361.015 355.894 360.433 372.191 361.015 436.798C361.888 508.971 362.47 517.119 366.836 517.992C372.074 518.865 502.451 444.946 508.272 437.671C510.891 434.178 511.764 412.061 511.764 349.782C511.764 287.504 510.891 265.387 508.272 261.894C503.615 256.365 473.058 239.195 467.82 239.195C465.492 239.195 459.38 242.105 454.142 245.306Z" fill="#673AB7"/>
<path d="M660.528 469V207.182H753.852C774.136 207.182 790.968 210.676 804.349 217.665C817.815 224.653 827.872 234.327 834.52 246.685C841.167 258.957 844.491 273.148 844.491 289.256C844.491 305.278 841.125 319.384 834.392 331.571C827.744 343.673 817.687 353.091 804.221 359.824C790.841 366.557 774.008 369.923 753.724 369.923H683.028V335.918H750.145C762.929 335.918 773.326 334.085 781.338 330.42C789.434 326.756 795.358 321.429 799.108 314.44C802.858 307.452 804.733 299.057 804.733 289.256C804.733 279.369 802.815 270.804 798.98 263.56C795.23 256.315 789.306 250.776 781.21 246.94C773.199 243.02 762.673 241.06 749.633 241.06H700.031V469H660.528ZM789.775 350.875L854.463 469H809.463L746.054 350.875H789.775ZM999.48 387.565V272.636H1037.83V469H1000.25V434.994H998.202C993.685 445.477 986.441 454.213 976.469 461.202C966.583 468.105 954.267 471.557 939.523 471.557C926.909 471.557 915.745 468.787 906.029 463.247C896.398 457.622 888.813 449.312 883.273 438.318C877.818 427.324 875.091 413.73 875.091 397.537V272.636H913.316V392.935C913.316 406.315 917.023 416.969 924.438 424.895C931.852 432.821 941.483 436.784 953.33 436.784C960.489 436.784 967.605 434.994 974.679 431.415C981.838 427.835 987.762 422.423 992.449 415.179C997.222 407.935 999.566 398.73 999.48 387.565ZM1113.02 352.409V469H1074.79V272.636H1111.48V304.597H1113.91C1118.43 294.199 1125.5 285.847 1135.13 279.54C1144.85 273.233 1157.08 270.08 1171.82 270.08C1185.2 270.08 1196.92 272.892 1206.98 278.517C1217.04 284.057 1224.84 292.324 1230.38 303.318C1235.91 314.312 1238.68 327.906 1238.68 344.099V469H1200.46V348.702C1200.46 334.469 1196.75 323.347 1189.34 315.335C1181.92 307.239 1171.74 303.19 1158.78 303.19C1149.92 303.19 1142.04 305.108 1135.13 308.943C1128.32 312.778 1122.9 318.403 1118.9 325.818C1114.98 333.148 1113.02 342.011 1113.02 352.409ZM1278.62 469V207.182H1371.94C1392.31 207.182 1409.19 210.889 1422.57 218.304C1435.95 225.719 1445.96 235.861 1452.61 248.73C1459.26 261.514 1462.58 275.918 1462.58 291.94C1462.58 308.048 1459.21 322.537 1452.48 335.406C1445.83 348.19 1435.78 358.332 1422.31 365.832C1408.93 373.247 1392.1 376.955 1371.81 376.955H1307.64V343.46H1368.23C1381.1 343.46 1391.54 341.244 1399.55 336.812C1407.57 332.295 1413.45 326.159 1417.2 318.403C1420.95 310.648 1422.82 301.827 1422.82 291.94C1422.82 282.054 1420.95 273.276 1417.2 265.605C1413.45 257.935 1407.52 251.926 1399.43 247.58C1391.42 243.233 1380.85 241.06 1367.72 241.06H1318.12V469H1278.62ZM1571.67 472.963C1553.27 472.963 1537.2 468.744 1523.48 460.307C1509.76 451.869 1499.1 440.065 1491.52 424.895C1483.93 409.724 1480.14 391.997 1480.14 371.713C1480.14 351.344 1483.93 333.531 1491.52 318.276C1499.1 303.02 1509.76 291.173 1523.48 282.736C1537.2 274.298 1553.27 270.08 1571.67 270.08C1590.08 270.08 1606.15 274.298 1619.87 282.736C1633.59 291.173 1644.25 303.02 1651.83 318.276C1659.42 333.531 1663.21 351.344 1663.21 371.713C1663.21 391.997 1659.42 409.724 1651.83 424.895C1644.25 440.065 1633.59 451.869 1619.87 460.307C1606.15 468.744 1590.08 472.963 1571.67 472.963ZM1571.8 440.875C1583.73 440.875 1593.62 437.722 1601.46 431.415C1609.3 425.108 1615.1 416.713 1618.85 406.23C1622.68 395.747 1624.6 384.199 1624.6 371.585C1624.6 359.057 1622.68 347.551 1618.85 337.068C1615.1 326.5 1609.3 318.02 1601.46 311.628C1593.62 305.236 1583.73 302.04 1571.8 302.04C1559.79 302.04 1549.81 305.236 1541.89 311.628C1534.05 318.02 1528.21 326.5 1524.37 337.068C1520.62 347.551 1518.75 359.057 1518.75 371.585C1518.75 384.199 1520.62 395.747 1524.37 406.23C1528.21 416.713 1534.05 425.108 1541.89 431.415C1549.81 437.722 1559.79 440.875 1571.8 440.875ZM1764.98 472.835C1749.13 472.835 1734.98 468.787 1722.54 460.69C1710.18 452.509 1700.47 440.875 1693.39 425.79C1686.4 410.619 1682.91 392.423 1682.91 371.202C1682.91 349.98 1686.45 331.827 1693.52 316.741C1700.68 301.656 1710.48 290.108 1722.92 282.097C1735.37 274.085 1749.47 270.08 1765.24 270.08C1777.43 270.08 1787.23 272.125 1794.64 276.216C1802.14 280.222 1807.94 284.909 1812.03 290.278C1816.21 295.648 1819.44 300.378 1821.75 304.469H1824.05V207.182H1862.27V469H1824.94V438.446H1821.75C1819.44 442.622 1816.12 447.395 1811.77 452.764C1807.51 458.134 1801.63 462.821 1794.13 466.827C1786.63 470.832 1776.92 472.835 1764.98 472.835ZM1773.42 440.236C1784.42 440.236 1793.71 437.338 1801.29 431.543C1808.96 425.662 1814.76 417.523 1818.68 407.125C1822.68 396.727 1824.69 384.625 1824.69 370.818C1824.69 357.182 1822.73 345.25 1818.81 335.023C1814.88 324.795 1809.13 316.827 1801.55 311.116C1793.96 305.406 1784.59 302.551 1773.42 302.551C1761.92 302.551 1752.33 305.534 1744.66 311.5C1736.99 317.466 1731.19 325.605 1727.27 335.918C1723.44 346.23 1721.52 357.864 1721.52 370.818C1721.52 383.943 1723.48 395.747 1727.4 406.23C1731.32 416.713 1737.11 425.023 1744.79 431.159C1752.54 437.21 1762.09 440.236 1773.42 440.236Z" fill="white"/>
</svg>
