<svg width="594" height="130" viewBox="0 0 594 130" fill="none" xmlns="http://www.w3.org/2000/svg">
<g clip-path="url(#clip0_14083_242090)">
<path d="M202.411 35.0039C203.805 35.0039 204.935 36.1213 204.935 37.4996V44.6893C204.935 46.0615 203.815 47.1762 202.427 47.185L185.616 47.2908C178.849 47.2908 177.372 48.3857 177.372 56.6581V93.3344C177.372 94.7127 176.242 95.8301 174.848 95.8301H165.13C163.736 95.8301 162.606 94.7127 162.606 93.3344V51.1837C162.606 40.235 167.528 35.0039 178.972 35.0039H202.411Z" fill="black"/>
<path d="M260.959 82.6917C256.283 92.5455 248.654 96.8033 240.041 96.8033C221.952 96.8033 216.046 82.6917 216.046 64.4438V37.4997C216.046 36.1213 217.176 35.0039 218.57 35.0039H228.288C229.682 35.0039 230.812 36.1213 230.812 37.4996V64.4438C230.812 76.7307 236.226 82.0834 245.578 82.0834C251.484 82.0834 262.559 77.8256 262.559 57.7529V37.4996C262.559 36.1213 263.689 35.0039 265.083 35.0039H274.8C276.195 35.0039 277.325 36.1213 277.325 37.4996V93.3344C277.325 94.7127 276.195 95.8301 274.8 95.8301H265.083C263.689 95.8301 262.559 94.7127 262.559 93.3344V83.0566C262.559 80.5514 262.914 77.3442 263.392 74.9265C263.406 74.8526 263.349 74.7843 263.273 74.7843C263.215 74.7843 263.166 74.8239 263.155 74.8796C262.663 77.2995 261.931 80.4103 260.959 82.6917Z" fill="black"/>
<path d="M304.841 48.8729C309.763 38.5325 319.361 34.0312 327.605 34.0312C343.847 34.0312 350 48.143 350 66.3908V93.335C350 94.7133 348.87 95.8307 347.476 95.8307H337.635C336.241 95.8307 335.111 94.7133 335.111 93.335V66.3908C335.111 55.3205 330.435 48.7513 322.191 48.7513C315.792 48.7513 303.118 53.0091 303.118 73.0816V93.335C303.118 94.7133 301.988 95.8307 300.594 95.8307H290.876C289.482 95.8307 288.352 94.7133 288.352 93.335V37.5002C288.352 36.1219 289.482 35.0045 290.876 35.0045H300.594C301.988 35.0045 303.118 36.1219 303.118 37.5002V48.5079C303.118 50.8939 302.763 54.0987 302.285 56.5163C302.271 56.5902 302.328 56.6586 302.404 56.6586C302.461 56.6586 302.511 56.6189 302.522 56.5632C303.014 54.1464 303.748 51.1542 304.841 48.8729Z" fill="black"/>
<path d="M378.738 43.6417C384.275 37.8023 394.119 34.2744 402.24 34.2744C421.559 34.3961 432.757 44.3716 432.757 65.4174C432.757 86.4633 421.559 96.5604 402.24 96.5604C394.119 96.5604 384.275 93.0325 378.738 87.1932C376.789 85.2669 375.444 81.7917 374.581 79.2438C374.565 79.1959 374.52 79.1641 374.468 79.1641C374.389 79.1641 374.331 79.24 374.354 79.3156C375.196 82.0844 375.908 85.4187 375.908 88.1664V105.16C375.908 106.538 374.777 107.655 373.383 107.655H363.662C362.269 107.655 361.14 106.54 361.138 105.163L361.023 37.504C361.02 36.1241 362.151 35.0043 363.547 35.0043H373.383C374.777 35.0043 375.908 36.1217 375.908 37.5V42.6684C375.908 45.4116 375.198 48.9733 374.358 51.5193C374.334 51.5942 374.39 51.6707 374.47 51.6707C374.52 51.6707 374.565 51.6396 374.581 51.5924C375.443 49.0444 376.789 45.5683 378.738 43.6417ZM397.933 85.1251C412.576 85.1251 417.991 77.7043 417.991 65.4174C417.991 52.8872 412.453 46.683 397.933 46.318C386.613 46.318 375.908 53.7388 375.908 65.4174C375.908 77.096 386.613 85.1251 397.933 85.1251Z" fill="black"/>
<path d="M512.873 65.4174C512.873 86.4633 496.262 96.5604 476.943 96.5604C457.747 96.5604 441.135 86.4633 441.135 65.4174C441.135 44.3716 457.747 34.2744 476.943 34.2744C496.262 34.2744 512.873 44.4932 512.873 65.4174ZM498.107 65.4174C498.107 53.1305 488.14 46.1964 476.943 46.1964C466.114 46.1964 455.901 53.1305 455.901 65.4174C455.901 78.0693 465.376 84.5168 476.943 84.5168C488.263 84.5168 498.107 77.826 498.107 65.4174Z" fill="black"/>
<path d="M575.754 87.4363C570.094 93.0323 560.25 96.5602 552.129 96.5602C532.81 96.5602 521.613 86.4631 521.613 65.4172C521.613 44.3714 532.81 34.3959 552.129 34.2742C560.25 34.2742 570.217 38.0454 575.754 43.8848C577.703 45.811 578.928 49.2862 579.788 51.8341C579.804 51.8821 579.85 51.9138 579.901 51.9138C579.981 51.9138 580.038 51.8379 580.015 51.7624C579.174 48.9936 578.462 45.6593 578.462 42.9115V24.8385C578.462 23.4601 579.592 22.3428 580.986 22.3428H590.826C592.22 22.3428 593.351 23.4601 593.351 24.8385V93.3346C593.351 94.7129 592.22 95.8303 590.826 95.8303H580.986C579.592 95.8303 578.462 94.7129 578.462 93.3346V88.4095C578.462 85.6515 579.179 82.1844 580.024 79.6392C580.045 79.5755 580.016 79.5066 579.956 79.4767C579.881 79.44 579.792 79.4761 579.766 79.5538C578.907 82.0954 577.686 85.5268 575.754 87.4363ZM556.436 84.5166C567.756 84.5166 578.462 77.0958 578.462 65.4172C578.462 53.7386 567.756 45.7095 556.436 45.7095C541.793 46.0745 536.256 53.0087 536.256 65.4172C536.256 77.8258 541.916 84.5166 556.436 84.5166Z" fill="black"/>
<path fill-rule="evenodd" clip-rule="evenodd" d="M107.761 105.507C114.545 101.599 118.724 94.3777 118.724 86.5627V43.4373C118.724 35.6223 114.545 28.4008 107.761 24.4933L70.3254 2.93065C63.5414 -0.976885 55.1831 -0.976882 48.3991 2.93065L10.9632 24.4933C4.17914 28.4009 -1.56787e-06 35.6223 0 43.4373L4.94714e-06 86.5627C2.33289e-06 94.3777 4.17915 101.599 10.9632 105.507L48.3991 127.069C55.1831 130.977 63.5414 130.977 70.3254 127.069L107.761 105.507ZM107.761 86.5627C107.761 90.4702 105.672 94.0809 102.28 96.0347L82.6865 107.32C80.9596 108.315 80.0961 108.812 79.3876 108.738C78.7696 108.673 78.2082 108.35 77.8429 107.848C77.4242 107.273 77.4242 106.278 77.4242 104.289V81.7187C77.4242 77.8111 79.5137 74.2004 82.9057 72.2467L93.3965 66.2041C94.8371 65.3743 95.5574 64.9595 96.0808 64.3789C96.5439 63.8652 96.8935 63.26 97.1067 62.6026C97.3476 61.8597 97.3461 61.0299 97.3432 59.3704L97.3423 58.8719C97.3379 56.3896 97.3357 55.1484 96.8119 54.431C96.3549 53.8051 95.6534 53.4019 94.8816 53.3214C93.9967 53.2291 92.9192 53.8497 90.7644 55.0908L77.4242 62.7747C70.6401 66.6822 66.461 73.9036 66.461 81.7187V114.803C66.461 115.956 65.8445 117.021 64.8438 117.597C61.4518 119.551 57.2727 119.551 53.8807 117.597L16.4448 96.0347C13.0528 94.0809 10.9632 90.4702 10.9632 86.5627V64.3338C10.9632 62.3445 10.9632 61.3498 11.3819 60.7748C11.7472 60.2733 12.3086 59.9499 12.9266 59.8851C13.6351 59.8108 14.4985 60.3081 16.2254 61.3027L35.413 72.3538C38.805 74.3076 40.8946 77.9184 40.8946 81.8258V93.335C40.8946 94.9946 40.8946 95.8243 41.1369 96.5669C41.3512 97.2238 41.7018 97.8284 42.1659 98.3413C42.6903 98.921 43.4114 99.3346 44.8534 100.162L45.2866 100.41C47.4436 101.648 48.5221 102.266 49.4069 102.172C50.1786 102.091 50.8794 101.686 51.3352 101.059C51.8578 100.341 51.8578 99.0999 51.8578 96.6176V81.8258C51.8578 74.0108 47.6786 66.7894 40.8946 62.8818L12.8777 46.7454C11.693 46.0631 10.9632 44.8021 10.9632 43.4373C10.9632 39.5298 13.0527 35.9191 16.4448 33.9653L53.8806 12.4027C57.2727 10.4489 61.4518 10.4489 64.8438 12.4027L84.224 23.5654C85.9509 24.5601 86.8143 25.0574 87.1041 25.7067C87.3569 26.2731 87.3569 26.9198 87.1041 27.4862C86.8143 28.1355 85.9509 28.6328 84.224 29.6275L64.5407 40.9649C61.1487 42.9186 56.9696 42.9186 53.5775 40.9649L42.5494 34.6128C41.4517 33.9805 40.9028 33.6644 40.3187 33.5374C39.8018 33.4251 39.2672 33.4206 38.7485 33.5242C38.1623 33.6414 37.6082 33.9483 36.4999 34.562L35.1326 35.3193C32.9161 36.5468 31.8079 37.1606 31.4329 37.9748C31.106 38.6849 31.0991 39.5005 31.414 40.2159C31.7752 41.0363 32.873 41.6686 35.0684 42.9331L48.096 50.4369C54.88 54.3444 63.2383 54.3444 70.0223 50.4369L98.6193 33.9653C99.7518 33.313 101.147 33.313 102.28 33.9653C105.672 35.9191 107.761 39.5298 107.761 43.4373V86.5627Z" fill="black"/>
</g>
<defs>
<clipPath id="clip0_14083_242090">
<rect width="594" height="130" fill="white"/>
</clipPath>
</defs>
</svg>
