<svg width="698" height="184" viewBox="0 0 698 184" fill="none" xmlns="http://www.w3.org/2000/svg">
<g clip-path="url(#clip0_24_27)">
<path fill-rule="evenodd" clip-rule="evenodd" d="M152.812 149.333C162.387 143.802 168.286 133.581 168.286 122.519L168.286 61.4805C168.286 50.4192 162.387 40.1981 152.812 34.6675L99.9738 4.148C90.3986 -1.38267 78.6015 -1.38266 69.0263 4.148L16.1881 34.6675C6.61292 40.1981 0.714353 50.4192 0.714355 61.4805L0.714362 122.519C0.714359 133.581 6.61294 143.802 16.1881 149.333L69.0263 179.852C78.6015 185.383 90.3986 185.383 99.9738 179.852L152.812 149.333ZM152.812 122.519C152.812 128.05 149.863 133.161 145.075 135.926L117.421 151.899C114.983 153.307 113.765 154.011 112.764 153.906C111.892 153.814 111.1 153.357 110.584 152.647C109.993 151.833 109.993 150.425 109.993 147.609L109.993 115.663C109.993 110.133 112.943 105.022 117.73 102.257L132.537 93.7043C134.57 92.5298 135.587 91.9426 136.326 91.1209C136.979 90.3938 137.473 89.5372 137.774 88.6068C138.114 87.5552 138.112 86.3808 138.108 84.0319L138.106 83.3264C138.1 79.813 138.097 78.0562 137.358 77.0408C136.713 76.155 135.723 75.5843 134.633 75.4703C133.384 75.3396 131.863 76.218 128.822 77.9747L109.993 88.8503C100.418 94.3809 94.5195 104.602 94.5195 115.663L94.5195 162.49C94.5195 164.122 93.6494 165.63 92.237 166.445C87.4494 169.211 81.5508 169.211 76.7632 166.445L23.925 135.926C19.1374 133.161 16.1881 128.05 16.1881 122.519L16.1881 91.0571C16.1881 88.2414 16.1881 86.8336 16.7792 86.0198C17.2947 85.3099 18.0871 84.8522 18.9593 84.7604C19.9594 84.6553 21.178 85.3591 23.6154 86.7669L50.6974 102.408C55.4849 105.174 58.4343 110.284 58.4343 115.815L58.4343 132.105C58.4343 134.454 58.4343 135.628 58.7762 136.679C59.0788 137.609 59.5736 138.465 60.2286 139.191C60.9688 140.011 61.9865 140.597 64.0219 141.767L64.6333 142.119C67.6777 143.871 69.2 144.746 70.4487 144.613C71.538 144.497 72.5271 143.925 73.1705 143.038C73.9081 142.021 73.908 140.265 73.908 136.751L73.908 115.815C73.908 104.754 68.0095 94.5326 58.4343 89.002L18.8903 66.1628C17.2182 65.197 16.1881 63.4121 16.1881 61.4805C16.1881 55.9499 19.1374 50.8393 23.925 48.074L76.7632 17.5545C81.5508 14.7892 87.4493 14.7892 92.2369 17.5545L119.591 33.3541C122.028 34.762 123.247 35.4659 123.656 36.3849C124.013 37.1865 124.013 38.1019 123.656 38.9035C123.247 39.8225 122.028 40.5265 119.591 41.9343L91.8091 57.981C87.0215 60.7464 81.123 60.7464 76.3354 57.981L60.77 48.9904C59.2206 48.0955 58.4459 47.648 57.6214 47.4683C56.8919 47.3093 56.1373 47.303 55.4051 47.4497C54.5778 47.6155 53.7957 48.0498 52.2315 48.9186L50.3016 49.9904C47.1732 51.7278 45.609 52.5965 45.0798 53.749C44.6183 54.7539 44.6086 55.9084 45.0531 56.9209C45.5629 58.0822 47.1123 58.9771 50.211 60.7669L68.5985 71.3876C78.1737 76.9182 89.9708 76.9182 99.546 71.3876L139.909 48.074C141.507 47.1507 143.477 47.1507 145.075 48.074C149.863 50.8393 152.812 55.9499 152.812 61.4805V122.519Z" fill="white"/>
<path d="M234.69 138.587C233.914 138.587 233.286 137.957 233.286 137.179V44.3621C233.286 43.5842 233.914 42.9536 234.69 42.9536H275.297C293.05 42.9536 305.924 51.424 305.924 68.0916C305.924 78.5399 300.162 85.4333 293.228 89.1863C291.925 89.8915 292.069 92.5657 293.412 93.191C300.616 96.5457 304.433 103.634 304.433 113.586V137.179C304.433 137.957 303.805 138.587 303.029 138.587H287.949C287.174 138.587 286.545 137.957 286.545 137.179V115.225C286.545 103.886 282.479 99.7873 270.96 99.7873H252.443C251.667 99.7873 251.039 100.418 251.039 101.196V137.179C251.039 137.957 250.41 138.587 249.634 138.587H234.69ZM271.909 84.4859C282.344 84.4859 287.629 79.9775 287.629 71.3704C287.629 62.7634 282.344 58.1184 271.909 58.1184H252.443C251.667 58.1184 251.039 58.749 251.039 59.5268V83.0774C251.039 83.8553 251.667 84.4859 252.443 84.4859H271.909Z" fill="white"/>
<path d="M343.226 141.046C329.945 141.046 319.51 131.893 319.51 114.269V73.3254C319.51 72.5475 320.139 71.9169 320.914 71.9169H334.774C335.55 71.9169 336.179 72.5475 336.179 73.3254V111.673C336.179 120.963 340.244 127.658 348.24 127.658C356.642 127.658 362.605 121.373 362.605 111.537V73.3254C362.605 72.5475 363.234 71.9169 364.009 71.9169H377.734C378.51 71.9169 379.138 72.5475 379.138 73.3254V137.179C379.138 137.957 378.51 138.587 377.734 138.587H364.145C363.369 138.587 362.741 137.957 362.741 137.179V135.855C362.741 134.765 360.457 133.908 359.709 134.698C356.14 138.468 350.961 141.046 343.226 141.046Z" fill="white"/>
<path d="M397.292 138.587C396.516 138.587 395.888 137.957 395.888 137.179V73.3254C395.888 72.5475 396.516 71.9169 397.292 71.9169H411.017C411.792 71.9169 412.421 72.5475 412.421 73.3254V74.9225C412.421 76.2112 414.839 77.0965 415.734 76.1715C419.49 72.2872 424.786 69.731 432.207 69.731C446.843 69.731 455.516 80.1141 455.516 96.5084V137.179C455.516 137.957 454.887 138.587 454.112 138.587H440.387C439.612 138.587 438.983 137.957 438.983 137.179V98.9676C438.983 89.131 434.24 82.9831 426.515 82.9831C418.384 82.9831 412.421 90.2239 412.421 99.514V137.179C412.421 137.957 411.792 138.587 411.017 138.587H397.292Z" fill="white"/>
<path d="M475.158 138.587C474.382 138.587 473.753 137.957 473.753 137.179V44.3621C473.753 43.5842 474.382 42.9536 475.158 42.9536H513.596C533.382 42.9536 548.289 51.424 548.289 71.6437C548.289 92.4098 532.704 100.334 513.596 100.334H492.911C492.135 100.334 491.506 100.964 491.506 101.742V137.179C491.506 137.957 490.877 138.587 490.102 138.587H475.158ZM513.596 85.169C524.979 85.169 529.994 79.9775 529.994 71.6437C529.994 63.3099 525.251 58.1184 513.596 58.1184H492.911C492.135 58.1184 491.506 58.749 491.506 59.5268V83.7605C491.506 84.5384 492.135 85.169 492.911 85.169H513.596Z" fill="white"/>
<path d="M586.902 141.046C566.981 141.046 553.022 127.658 553.022 105.525C553.022 83.6662 567.117 69.731 586.902 69.731C606.824 69.731 620.918 83.6662 620.918 105.525C620.918 127.658 606.824 141.046 586.902 141.046ZM586.902 127.931C597.202 127.931 604.113 119.734 604.113 105.525C604.113 91.0436 597.066 82.9831 586.902 82.9831C576.874 82.9831 569.827 91.0436 569.827 105.525C569.827 119.734 576.603 127.931 586.902 127.931Z" fill="white"/>
<path d="M660.535 141.046C643.053 141.046 630.314 129.024 630.314 105.525C630.314 81.6169 645.357 69.731 660.806 69.731C668.112 69.731 673.44 72.4121 677.275 76.2626C678.121 77.1118 680.727 76.1227 680.727 74.9225V44.3621C680.727 43.5842 681.356 42.9536 682.132 42.9536H695.856C696.632 42.9536 697.261 43.5842 697.261 44.3621V137.179C697.261 137.957 696.632 138.587 695.856 138.587H682.132C681.356 138.587 680.727 137.957 680.727 137.179V135.855C680.727 134.888 678.152 133.936 677.47 134.62C674.037 138.065 668.674 141.046 660.535 141.046ZM664.465 127.931C674.358 127.931 681.676 118.777 681.676 105.389C681.676 91.7267 674.358 82.9831 664.465 82.9831C654.572 82.9831 647.118 92.1366 647.118 105.389C647.118 119.187 654.572 127.931 664.465 127.931Z" fill="white"/>
</g>
<defs>
<clipPath id="clip0_24_27">
<rect width="698" height="184" fill="white"/>
</clipPath>
</defs>
</svg>
